<mxfile host="app.diagrams.net" agent="Mozilla/5.0 (Windows NT 10.0; Win64; x64; rv:136.0) Gecko/20100101 Firefox/136.0" version="26.1.1">
  <diagram name="Page-1" id="qX7E-gIosMv9cqMaOcgP">
    <mxGraphModel dx="1050" dy="558" grid="1" gridSize="10" guides="1" tooltips="1" connect="1" arrows="1" fold="1" page="1" pageScale="1" pageWidth="827" pageHeight="1169" math="0" shadow="0">
      <root>
        <mxCell id="0" />
        <mxCell id="1" parent="0" />
        <mxCell id="USEiS9xNA5ofanlWpFOf-1" value="" style="rounded=0;whiteSpace=wrap;html=1;" vertex="1" parent="1">
          <mxGeometry x="180" y="10" width="460" height="620" as="geometry" />
        </mxCell>
        <mxCell id="USEiS9xNA5ofanlWpFOf-2" value="Recieve report" style="text;html=1;align=center;verticalAlign=middle;whiteSpace=wrap;rounded=0;" vertex="1" parent="1">
          <mxGeometry x="420" y="10" width="60" height="30" as="geometry" />
        </mxCell>
        <mxCell id="USEiS9xNA5ofanlWpFOf-22" style="edgeStyle=orthogonalEdgeStyle;rounded=0;orthogonalLoop=1;jettySize=auto;html=1;entryX=0;entryY=0.5;entryDx=0;entryDy=0;endArrow=none;startFill=0;" edge="1" parent="1" target="USEiS9xNA5ofanlWpFOf-5">
          <mxGeometry relative="1" as="geometry">
            <mxPoint x="90" y="115" as="sourcePoint" />
            <mxPoint x="290" y="90" as="targetPoint" />
          </mxGeometry>
        </mxCell>
        <mxCell id="USEiS9xNA5ofanlWpFOf-23" style="edgeStyle=orthogonalEdgeStyle;rounded=0;orthogonalLoop=1;jettySize=auto;html=1;entryX=0;entryY=0.5;entryDx=0;entryDy=0;endArrow=none;startFill=0;" edge="1" parent="1" source="USEiS9xNA5ofanlWpFOf-3" target="USEiS9xNA5ofanlWpFOf-7">
          <mxGeometry relative="1" as="geometry">
            <Array as="points">
              <mxPoint x="190" y="130" />
              <mxPoint x="190" y="215" />
            </Array>
          </mxGeometry>
        </mxCell>
        <mxCell id="USEiS9xNA5ofanlWpFOf-24" value="" style="edgeStyle=orthogonalEdgeStyle;rounded=0;orthogonalLoop=1;jettySize=auto;html=1;entryX=0;entryY=0.5;entryDx=0;entryDy=0;endArrow=none;startFill=0;" edge="1" parent="1" source="USEiS9xNA5ofanlWpFOf-3" target="USEiS9xNA5ofanlWpFOf-10">
          <mxGeometry relative="1" as="geometry">
            <Array as="points">
              <mxPoint x="160" y="140" />
              <mxPoint x="160" y="325" />
            </Array>
          </mxGeometry>
        </mxCell>
        <mxCell id="USEiS9xNA5ofanlWpFOf-3" value="&lt;div&gt;Emergency&amp;nbsp;&lt;/div&gt;&lt;div&gt;response&lt;/div&gt;" style="shape=umlActor;verticalLabelPosition=bottom;verticalAlign=top;html=1;outlineConnect=0;" vertex="1" parent="1">
          <mxGeometry x="60" y="110" width="30" height="60" as="geometry" />
        </mxCell>
        <mxCell id="USEiS9xNA5ofanlWpFOf-5" value="Categorises incident" style="ellipse;whiteSpace=wrap;html=1;" vertex="1" parent="1">
          <mxGeometry x="290" y="70" width="140" height="70" as="geometry" />
        </mxCell>
        <mxCell id="USEiS9xNA5ofanlWpFOf-8" value="" style="edgeStyle=orthogonalEdgeStyle;rounded=0;orthogonalLoop=1;jettySize=auto;html=1;dashed=1;" edge="1" parent="1" source="USEiS9xNA5ofanlWpFOf-7" target="USEiS9xNA5ofanlWpFOf-5">
          <mxGeometry relative="1" as="geometry" />
        </mxCell>
        <mxCell id="USEiS9xNA5ofanlWpFOf-9" value="&amp;lt;&amp;lt;include&amp;gt;&amp;gt;" style="edgeLabel;html=1;align=center;verticalAlign=middle;resizable=0;points=[];" vertex="1" connectable="0" parent="USEiS9xNA5ofanlWpFOf-8">
          <mxGeometry relative="1" as="geometry">
            <mxPoint as="offset" />
          </mxGeometry>
        </mxCell>
        <mxCell id="USEiS9xNA5ofanlWpFOf-7" value="Allocate response team" style="ellipse;whiteSpace=wrap;html=1;" vertex="1" parent="1">
          <mxGeometry x="290" y="180" width="140" height="70" as="geometry" />
        </mxCell>
        <mxCell id="USEiS9xNA5ofanlWpFOf-11" value="" style="edgeStyle=orthogonalEdgeStyle;rounded=0;orthogonalLoop=1;jettySize=auto;html=1;dashed=1;" edge="1" parent="1" source="USEiS9xNA5ofanlWpFOf-10" target="USEiS9xNA5ofanlWpFOf-7">
          <mxGeometry relative="1" as="geometry" />
        </mxCell>
        <mxCell id="USEiS9xNA5ofanlWpFOf-12" value="&amp;lt;&amp;lt;include&amp;gt;&amp;gt;" style="edgeLabel;html=1;align=center;verticalAlign=middle;resizable=0;points=[];" vertex="1" connectable="0" parent="USEiS9xNA5ofanlWpFOf-11">
          <mxGeometry x="-0.1" relative="1" as="geometry">
            <mxPoint as="offset" />
          </mxGeometry>
        </mxCell>
        <mxCell id="USEiS9xNA5ofanlWpFOf-10" value="allow live location sharing for response team" style="ellipse;whiteSpace=wrap;html=1;" vertex="1" parent="1">
          <mxGeometry x="290" y="290" width="140" height="70" as="geometry" />
        </mxCell>
        <mxCell id="USEiS9xNA5ofanlWpFOf-14" value="" style="edgeStyle=orthogonalEdgeStyle;rounded=0;orthogonalLoop=1;jettySize=auto;html=1;dashed=1;" edge="1" parent="1" source="USEiS9xNA5ofanlWpFOf-13" target="USEiS9xNA5ofanlWpFOf-10">
          <mxGeometry relative="1" as="geometry" />
        </mxCell>
        <mxCell id="USEiS9xNA5ofanlWpFOf-15" value="&amp;lt;&amp;lt;include&amp;gt;&amp;gt;" style="edgeLabel;html=1;align=center;verticalAlign=middle;resizable=0;points=[];" vertex="1" connectable="0" parent="USEiS9xNA5ofanlWpFOf-14">
          <mxGeometry x="-0.2" relative="1" as="geometry">
            <mxPoint as="offset" />
          </mxGeometry>
        </mxCell>
        <mxCell id="USEiS9xNA5ofanlWpFOf-13" value="send response team information to original report" style="ellipse;whiteSpace=wrap;html=1;" vertex="1" parent="1">
          <mxGeometry x="275" y="400" width="170" height="90" as="geometry" />
        </mxCell>
        <mxCell id="USEiS9xNA5ofanlWpFOf-17" value="" style="edgeStyle=orthogonalEdgeStyle;rounded=0;orthogonalLoop=1;jettySize=auto;html=1;dashed=1;" edge="1" parent="1" source="USEiS9xNA5ofanlWpFOf-16" target="USEiS9xNA5ofanlWpFOf-13">
          <mxGeometry relative="1" as="geometry" />
        </mxCell>
        <mxCell id="USEiS9xNA5ofanlWpFOf-18" value="&amp;lt;&amp;lt;include&amp;gt;&amp;gt;" style="edgeLabel;html=1;align=center;verticalAlign=middle;resizable=0;points=[];" vertex="1" connectable="0" parent="USEiS9xNA5ofanlWpFOf-17">
          <mxGeometry x="0.4" y="1" relative="1" as="geometry">
            <mxPoint as="offset" />
          </mxGeometry>
        </mxCell>
        <mxCell id="USEiS9xNA5ofanlWpFOf-16" value="establish link for communication" style="ellipse;whiteSpace=wrap;html=1;" vertex="1" parent="1">
          <mxGeometry x="290" y="520" width="140" height="70" as="geometry" />
        </mxCell>
      </root>
    </mxGraphModel>
  </diagram>
</mxfile>
